<svg height="500" width="500" viewBox="-571.3947143554688 -76.31139373779297 81.02297973632812 80.08506727218628" xmlns="http://www.w3.org/2000/svg">
<line x1="-532.8606566625597" y1="-31.099883522818086" x2="-532.8651695535395" y2="-31.103240928954676" style="stroke:#F00;stroke-width:0.16204595947265624" />
<line x1="-532.8651695535395" y1="-31.103240928954676" x2="-532.8748026489955" y2="-31.110320968089642" style="stroke:#F00;stroke-width:0.16204595947265624" />
<line x1="-533.1107570113271" y1="-31.58664490987688" x2="-533.2300639094971" y2="-31.960205839597787" style="stroke:#F00;stroke-width:0.16204595947265624" />
<line x1="-533.2300639094971" y1="-31.960205839597787" x2="-533.2814414441401" y2="-32.119538387204955" style="stroke:#F00;stroke-width:0.16204595947265624" />
<line x1="-533.2814414441401" y1="-32.119538387204955" x2="-533.44867896739" y2="-32.65097712982766" style="stroke:#F00;stroke-width:0.16204595947265624" />
<line x1="-533.44867896739" y1="-32.65097712982766" x2="-533.4516540832748" y2="-32.6603447708405" style="stroke:#F00;stroke-width:0.16204595947265624" />
<line x1="-533.4516540832748" y1="-32.6603447708405" x2="-533.4632094572364" y2="-32.69465526672726" style="stroke:#F00;stroke-width:0.16204595947265624" />
<line x1="-533.4632094572364" y1="-32.69465526672726" x2="-533.6278599507992" y2="-33.19545886227287" style="stroke:#F00;stroke-width:0.16204595947265624" />
<line x1="-533.6278599507992" y1="-33.19545886227287" x2="-533.6773120762406" y2="-33.32924840737324" style="stroke:#F00;stroke-width:0.16204595947265624" />
<line x1="-533.6773120762406" y1="-33.32924840737324" x2="-533.8260474122948" y2="-33.72873291627845" style="stroke:#F00;stroke-width:0.16204595947265624" />
<line x1="-533.8260474122948" y1="-33.72873291627845" x2="-533.8760537672302" y2="-33.84800503586825" style="stroke:#F00;stroke-width:0.16204595947265624" />
<line x1="-533.8760537672302" y1="-33.84800503586825" x2="-533.9373058554593" y2="-33.99300595418915" style="stroke:#F00;stroke-width:0.16204595947265624" />
<line x1="-534.0595977071121" y1="-34.25406084616575" x2="-534.1497986043105" y2="-34.42354251136533" style="stroke:#F00;stroke-width:0.16204595947265624" />
<line x1="-534.1497986043105" y1="-34.42354251136533" x2="-534.1958818397192" y2="-34.50953328762815" style="stroke:#F00;stroke-width:0.16204595947265624" />
<line x1="-534.3486225709507" y1="-34.7572933044519" x2="-534.4931041528721" y2="-34.96203514112863" style="stroke:#F00;stroke-width:0.16204595947265624" />
<line x1="-534.4931041528721" y1="-34.96203514112863" x2="-534.5170358473146" y2="-34.99573800197919" style="stroke:#F00;stroke-width:0.16204595947265624" />
<line x1="-534.7002489317459" y1="-35.224526614921665" x2="-534.8154330009372" y2="-35.353014867133446" style="stroke:#F00;stroke-width:0.16204595947265624" />
<line x1="-534.8154330009372" y1="-35.353014867133446" x2="-534.894967051802" y2="-35.44123960138136" style="stroke:#F00;stroke-width:0.16204595947265624" />
<line x1="-535.0987356883428" y1="-35.64634652838343" x2="-535.1519746299457" y2="-35.69604143309483" style="stroke:#F00;stroke-width:0.16204595947265624" />
<line x1="-535.1519746299457" y1="-35.69604143309483" x2="-535.5236602221643" y2="-36.040546093345576" style="stroke:#F00;stroke-width:0.16204595947265624" />
<line x1="-535.7314050177555" y1="-36.24482120157514" x2="-535.579975614312" y2="-36.096289566497965" style="stroke:#F00;stroke-width:0.16204595947265624" />
<line x1="-535.5236602221643" y1="-36.040546093345576" x2="-535.5513699409302" y2="-36.0669943062227" style="stroke:#F00;stroke-width:0.16204595947265624" />
<line x1="-535.5513699409302" y1="-36.0669943062227" x2="-535.579975614312" y2="-36.096289566497965" style="stroke:#F00;stroke-width:0.16204595947265624" />
<line x1="-535.9106414376022" y1="-36.47434965941439" x2="-535.9254961332418" y2="-36.50027913663567" style="stroke:#F00;stroke-width:0.16204595947265624" />
<line x1="-535.9254961332418" y1="-36.50027913663567" x2="-535.9473210843972" y2="-36.53777570387879" style="stroke:#F00;stroke-width:0.16204595947265624" />
<line x1="-536.0486152067768" y1="-37.03188055215849" x2="-536.0444352961794" y2="-37.07221084178239" style="stroke:#F00;stroke-width:0.16204595947265624" />
<line x1="-536.0444352961794" y1="-37.07221084178239" x2="-536.0413326347136" y2="-37.103848700038995" style="stroke:#F00;stroke-width:0.16204595947265624" />
<line x1="-535.8643607522602" y1="-37.572746354276056" x2="-535.8371576781841" y2="-37.6124006156191" style="stroke:#F00;stroke-width:0.16204595947265624" />
<line x1="-535.8371576781841" y1="-37.6124006156191" x2="-535.8240488678939" y2="-37.63160610765841" style="stroke:#F00;stroke-width:0.16204595947265624" />
<line x1="-535.4762233935638" y1="-37.988146344918334" x2="-535.3055059428647" y2="-38.11718817240687" style="stroke:#F00;stroke-width:0.16204595947265624" />
<line x1="-535.3055059428647" y1="-38.11718817240687" x2="-535.2494088409369" y2="-38.15960866964848" style="stroke:#F00;stroke-width:0.16204595947265624" />
<line x1="-535.0150239762901" y1="-38.32092222100477" x2="-534.6310268807171" y2="-38.57631116348103" style="stroke:#F00;stroke-width:0.16204595947265624" />
<line x1="-534.6310268807171" y1="-38.57631116348103" x2="-534.5410396087726" y2="-38.63604829823057" style="stroke:#F00;stroke-width:0.16204595947265624" />
<line x1="-534.5410396087726" y1="-38.63604829823057" x2="-534.1460536140187" y2="-38.92104783043157" style="stroke:#F00;stroke-width:0.16204595947265624" />
<line x1="-534.1460536140187" y1="-38.92104783043157" x2="-534.0788210138289" y2="-38.96942194573288" style="stroke:#F00;stroke-width:0.16204595947265624" />
<line x1="-534.0788210138289" y1="-38.96942194573288" x2="-533.8862065385858" y2="-39.1333427564973" style="stroke:#F00;stroke-width:0.16204595947265624" />
<line x1="-533.8862065385858" y1="-39.1333427564973" x2="-533.8610472789095" y2="-39.15466055968395" style="stroke:#F00;stroke-width:0.16204595947265624" />
<line x1="-533.658581058072" y1="-39.357062602347824" x2="-533.56980459754" y2="-39.45809204586883" style="stroke:#F00;stroke-width:0.16204595947265624" />
<line x1="-533.56980459754" y1="-39.45809204586883" x2="-533.5635950099663" y2="-39.46512743085412" style="stroke:#F00;stroke-width:0.16204595947265624" />
<line x1="-533.3078476001765" y1="-39.81375735491217" x2="-533.2856095984732" y2="-39.85035473235086" style="stroke:#F00;stroke-width:0.16204595947265624" />
<line x1="-533.2856095984732" y1="-39.85035473235086" x2="-533.2320482744076" y2="-39.93662750259725" style="stroke:#F00;stroke-width:0.16204595947265624" />
<line x1="-533.0338655188751" y1="-40.32093220464311" x2="-533.0243238858305" y2="-40.34429803855792" style="stroke:#F00;stroke-width:0.16204595947265624" />
<line x1="-533.0243238858305" y1="-40.34429803855792" x2="-532.9237662412212" y2="-40.58897288344946" style="stroke:#F00;stroke-width:0.16204595947265624" />
<line x1="-532.8272356381646" y1="-40.86261105521883" x2="-532.8097962674482" y2="-40.91484785008863" style="stroke:#F00;stroke-width:0.16204595947265624" />
<line x1="-532.8097962674482" y1="-40.91484785008863" x2="-532.7348577678074" y2="-41.13823199495542" style="stroke:#F00;stroke-width:0.16204595947265624" />
<line x1="-532.6325993735751" y1="-41.41071189261915" x2="-532.6243948006278" y2="-41.429269136544164" style="stroke:#F00;stroke-width:0.16204595947265624" />
<line x1="-532.6243948006278" y1="-41.429269136544164" x2="-532.6032510955445" y2="-41.476917566053274" style="stroke:#F00;stroke-width:0.16204595947265624" />
<line x1="-532.2708934706636" y1="-41.836677211195145" x2="-532.2592230585509" y2="-41.83920793221248" style="stroke:#F00;stroke-width:0.16204595947265624" />
<line x1="-532.2592230585509" y1="-41.83920793221248" x2="-532.2532756803346" y2="-41.8404424599588" style="stroke:#F00;stroke-width:0.16204595947265624" />
<line x1="-531.7229940942607" y1="-41.69440862606744" x2="-531.3228851538877" y2="-41.471111239778274" style="stroke:#F00;stroke-width:0.16204595947265624" />
<line x1="-531.3228851538877" y1="-41.471111239778274" x2="-531.2176146088839" y2="-41.4120865396881" style="stroke:#F00;stroke-width:0.16204595947265624" />
<line x1="-531.2176146088839" y1="-41.4120865396881" x2="-530.7684395771569" y2="-41.16711440876779" style="stroke:#F00;stroke-width:0.16204595947265624" />
<line x1="-530.7684395771569" y1="-41.16711440876779" x2="-530.7102123891468" y2="-41.13522870508309" style="stroke:#F00;stroke-width:0.16204595947265624" />
<line x1="-530.7102123891468" y1="-41.13522870508309" x2="-530.2008020634846" y2="-40.899093650333114" style="stroke:#F00;stroke-width:0.16204595947265624" />
<line x1="-530.2008020634846" y1="-40.899093650333114" x2="-530.1878834573627" y2="-40.89308046915777" style="stroke:#F00;stroke-width:0.16204595947265624" />
<line x1="-530.0311315337442" y1="-40.832140245033386" x2="-529.6521063754193" y2="-40.68070340467233" style="stroke:#F00;stroke-width:0.16204595947265624" />
<line x1="-530.1878834573627" y1="-40.89308046915777" x2="-530.0311315337442" y2="-40.832140245033386" style="stroke:#F00;stroke-width:0.16204595947265624" />
<line x1="-529.6521063754193" y1="-40.68070340467233" x2="-529.6188104635594" y2="-40.66921131160152" style="stroke:#F00;stroke-width:0.16204595947265624" />
<line x1="-529.6188104635594" y1="-40.66921131160152" x2="-529.1085960279038" y2="-40.49253059436793" style="stroke:#F00;stroke-width:0.16204595947265624" />
<line x1="-529.1085960279038" y1="-40.49253059436793" x2="-529.0297430584044" y2="-40.468691634146126" style="stroke:#F00;stroke-width:0.16204595947265624" />
<line x1="-529.0297430584044" y1="-40.468691634146126" x2="-528.5599992146942" y2="-40.326150521841825" style="stroke:#F00;stroke-width:0.16204595947265624" />
<line x1="-528.5599992146942" y1="-40.326150521841825" x2="-528.4368471742575" y2="-40.29370253172613" style="stroke:#F00;stroke-width:0.16204595947265624" />
<line x1="-528.4368471742575" y1="-40.29370253172613" x2="-528.0075163718808" y2="-40.1800987470025" style="stroke:#F00;stroke-width:0.16204595947265624" />
<line x1="-528.0075163718808" y1="-40.1800987470025" x2="-527.8414211819435" y2="-40.14325458877484" style="stroke:#F00;stroke-width:0.16204595947265624" />
<line x1="-527.8414211819435" y1="-40.14325458877484" x2="-527.4512039529965" y2="-40.05625601809994" style="stroke:#F00;stroke-width:0.16204595947265624" />
<line x1="-527.4512039529965" y1="-40.05625601809994" x2="-527.2444860821631" y2="-40.01419056237184" style="stroke:#F00;stroke-width:0.16204595947265624" />
<line x1="-527.2444860821631" y1="-40.01419056237184" x2="-526.8943216378868" y2="-39.94247087876012" style="stroke:#F00;stroke-width:0.16204595947265624" />
<line x1="-526.8943216378868" y1="-39.94247087876012" x2="-526.8362771390834" y2="-39.928579167673576" style="stroke:#F00;stroke-width:0.16204595947265624" />
<line x1="-526.8362771390834" y1="-39.928579167673576" x2="-526.7558529410393" y2="-39.90918357409206" style="stroke:#F00;stroke-width:0.16204595947265624" />
<line x1="-526.3609935970345" y1="-39.752569263024405" x2="-526.3465094453047" y2="-39.74182486121712" style="stroke:#F00;stroke-width:0.16204595947265624" />
<line x1="-526.3465094453047" y1="-39.74182486121712" x2="-526.3320949385896" y2="-39.731031699068254" style="stroke:#F00;stroke-width:0.16204595947265624" />
<line x1="-526.2521352574481" y1="-39.23084678833597" x2="-526.2850210267077" y2="-39.14090257439949" style="stroke:#F00;stroke-width:0.16204595947265624" />
<line x1="-526.2850210267077" y1="-39.14090257439949" x2="-526.3017692759412" y2="-39.094644923688676" style="stroke:#F00;stroke-width:0.16204595947265624" />
<line x1="-526.4760382984202" y1="-38.69704749849619" x2="-526.5709240277307" y2="-38.48123201355795" style="stroke:#F00;stroke-width:0.16204595947265624" />
<line x1="-526.5709240277307" y1="-38.48123201355795" x2="-526.5920880631085" y2="-38.43257405911405" style="stroke:#F00;stroke-width:0.16204595947265624" />
<line x1="-526.6974227171935" y1="-38.164390941867204" x2="-526.7406262711426" y2="-38.037970778797664" style="stroke:#F00;stroke-width:0.16204595947265624" />
<line x1="-526.7406262711426" y1="-38.037970778797664" x2="-526.7440249131362" y2="-38.02787057298545" style="stroke:#F00;stroke-width:0.16204595947265624" />
<line x1="-526.8481521828479" y1="-37.60696992787972" x2="-526.8490363290279" y2="-37.600750259880186" style="stroke:#F00;stroke-width:0.16204595947265624" />
<line x1="-526.8490363290279" y1="-37.600750259880186" x2="-526.8680262215947" y2="-37.46201165174354" style="stroke:#F00;stroke-width:0.16204595947265624" />
<line x1="-526.8767643531638" y1="-37.02554271448285" x2="-526.8742742183674" y2="-36.99378014406629" style="stroke:#F00;stroke-width:0.16204595947265624" />
<line x1="-526.8742742183674" y1="-36.99378014406629" x2="-526.8649093309816" y2="-36.88078382234557" style="stroke:#F00;stroke-width:0.16204595947265624" />
<line x1="-526.7952012436309" y1="-36.45328283653762" x2="-526.7651586151687" y2="-36.3312560561921" style="stroke:#F00;stroke-width:0.16204595947265624" />
<line x1="-526.7651586151687" y1="-36.3312560561921" x2="-526.7260861610285" y2="-36.17478377017715" style="stroke:#F00;stroke-width:0.16204595947265624" />
<line x1="-526.6430853149005" y1="-35.901808452149446" x2="-526.4967822623958" y2="-35.506499749950606" style="stroke:#F00;stroke-width:0.16204595947265624" />
<line x1="-526.4967822623958" y1="-35.506499749950606" x2="-526.4464749166273" y2="-35.371499771739096" style="stroke:#F00;stroke-width:0.16204595947265624" />
<line x1="-526.2314687227345" y1="-34.876766994405706" x2="-526.2237249124732" y2="-34.85846406187944" style="stroke:#F00;stroke-width:0.16204595947265624" />
<line x1="-526.4464749166273" y1="-35.371499771739096" x2="-526.2314687227345" y2="-34.876766994405706" style="stroke:#F00;stroke-width:0.16204595947265624" />
<line x1="-526.2237249124732" y1="-34.85846406187944" x2="-526.2216009752714" y2="-34.85362073363972" style="stroke:#F00;stroke-width:0.16204595947265624" />
<line x1="-526.2216009752714" y1="-34.85362073363972" x2="-525.9970183849967" y2="-34.34409852004791" style="stroke:#F00;stroke-width:0.16204595947265624" />
<line x1="-525.9970183849967" y1="-34.34409852004791" x2="-525.9849727622377" y2="-34.314140357841225" style="stroke:#F00;stroke-width:0.16204595947265624" />
<line x1="-525.9849727622377" y1="-34.314140357841225" x2="-525.9447744672947" y2="-34.21449712026504" style="stroke:#F00;stroke-width:0.16204595947265624" />
<line x1="-525.8554863963217" y1="-33.809054813940364" x2="-525.8561545076294" y2="-33.80141292455137" style="stroke:#F00;stroke-width:0.16204595947265624" />
<line x1="-525.8561545076294" y1="-33.80141292455137" x2="-525.8571299817972" y2="-33.79175579009157" style="stroke:#F00;stroke-width:0.16204595947265624" />
<line x1="-526.2122179917509" y1="-33.417659024945365" x2="-526.2691448092837" y2="-33.39432129386573" style="stroke:#F00;stroke-width:0.16204595947265624" />
<line x1="-526.2691448092837" y1="-33.39432129386573" x2="-526.3391131529175" y2="-33.365203902870306" style="stroke:#F00;stroke-width:0.16204595947265624" />
<line x1="-526.7312597672015" y1="-33.24104605285816" x2="-526.9689740757949" y2="-33.18138245987731" style="stroke:#F00;stroke-width:0.16204595947265624" />
<line x1="-526.9689740757949" y1="-33.18138245987731" x2="-527.2625753451813" y2="-33.107383409323226" style="stroke:#F00;stroke-width:0.16204595947265624" />
<line x1="-527.2625753451813" y1="-33.107383409323226" x2="-527.5080452790598" y2="-33.05052865887071" style="stroke:#F00;stroke-width:0.16204595947265624" />
<line x1="-527.5080452790598" y1="-33.05052865887071" x2="-527.7964026373336" y2="-32.983573481112224" style="stroke:#F00;stroke-width:0.16204595947265624" />
<line x1="-527.7964026373336" y1="-32.983573481112224" x2="-528.0496669180002" y2="-32.92438963440858" style="stroke:#F00;stroke-width:0.16204595947265624" />
<line x1="-528.0496669180002" y1="-32.92438963440858" x2="-528.3303078651836" y2="-32.8587177641343" style="stroke:#F00;stroke-width:0.16204595947265624" />
<line x1="-528.3303078651836" y1="-32.8587177641343" x2="-528.589589603609" y2="-32.79408755450643" style="stroke:#F00;stroke-width:0.16204595947265624" />
<line x1="-528.589589603609" y1="-32.79408755450643" x2="-528.862672890271" y2="-32.7259986379528" style="stroke:#F00;stroke-width:0.16204595947265624" />
<line x1="-528.862672890271" y1="-32.7259986379528" x2="-529.1241213309438" y2="-32.65277582693635" style="stroke:#F00;stroke-width:0.16204595947265624" />
<line x1="-529.1241213309438" y1="-32.65277582693635" x2="-529.3911920668293" y2="-32.57805196704268" style="stroke:#F00;stroke-width:0.16204595947265624" />
<line x1="-529.3911920668293" y1="-32.57805196704268" x2="-529.6551805076731" y2="-32.4905484231091" style="stroke:#F00;stroke-width:0.16204595947265624" />
<line x1="-529.6551805076731" y1="-32.4905484231091" x2="-529.9120173825437" y2="-32.405211278455006" style="stroke:#F00;stroke-width:0.16204595947265624" />
<line x1="-529.9120173825437" y1="-32.405211278455006" x2="-530.1775184202536" y2="-32.299710587804704" style="stroke:#F00;stroke-width:0.16204595947265624" />
<line x1="-530.1775184202536" y1="-32.299710587804704" x2="-530.4213779089259" y2="-32.20250759537772" style="stroke:#F00;stroke-width:0.16204595947265624" />
<line x1="-530.4213779089259" y1="-32.20250759537772" x2="-530.693967247267" y2="-32.07493018389879" style="stroke:#F00;stroke-width:0.16204595947265624" />
<line x1="-530.693967247267" y1="-32.07493018389879" x2="-530.9169874261831" y2="-31.970197564619653" style="stroke:#F00;stroke-width:0.16204595947265624" />
<line x1="-530.9169874261831" y1="-31.970197564619653" x2="-531.202259559615" y2="-31.816662074812196" style="stroke:#F00;stroke-width:0.16204595947265624" />
<line x1="-531.202259559615" y1="-31.816662074812196" x2="-531.397611411325" y2="-31.71114670176167" style="stroke:#F00;stroke-width:0.16204595947265624" />
<line x1="-531.397611411325" y1="-31.71114670176167" x2="-531.701743444168" y2="-31.530387204866813" style="stroke:#F00;stroke-width:0.16204595947265624" />
<line x1="-531.701743444168" y1="-31.530387204866813" x2="-531.8654531764832" y2="-31.43273184078806" style="stroke:#F00;stroke-width:0.16204595947265624" />
<line x1="-531.8654531764832" y1="-31.43273184078806" x2="-532.0265180146041" y2="-31.337435333099368" style="stroke:#F00;stroke-width:0.16204595947265624" />
<line x1="-532.0265180146041" y1="-31.337435333099368" x2="-532.0991811538416" y2="-31.294288134478325" style="stroke:#F00;stroke-width:0.16204595947265624" />
<line x1="-532.4467380947191" y1="-31.119237362586862" x2="-532.4639396952198" y2="-31.112133841247683" style="stroke:#F00;stroke-width:0.16204595947265624" />
<line x1="-532.4297298905832" y1="-31.1270533363197" x2="-532.4467380947191" y2="-31.119237362586862" style="stroke:#F00;stroke-width:0.16204595947265624" />
<line x1="-532.3390004579051" y1="-31.166553763840792" x2="-532.4297298905832" y2="-31.1270533363197" style="stroke:#F00;stroke-width:0.16204595947265624" />
<line x1="-533.0138596935977" y1="-31.32728510521051" x2="-533.060670056842" y2="-31.453291117531005" style="stroke:#F00;stroke-width:0.16204595947265624" />
<line x1="-533.060670056842" y1="-31.453291117531005" x2="-533.1107570113271" y2="-31.58664490987688" style="stroke:#F00;stroke-width:0.16204595947265624" />
<line x1="-532.9524470369853" y1="-31.203518223934765" x2="-532.9588957619594" y2="-31.21493775978984" style="stroke:#F00;stroke-width:0.16204595947265624" />
<line x1="-532.9588957619594" y1="-31.21493775978984" x2="-532.9695596857697" y2="-31.23359848806614" style="stroke:#F00;stroke-width:0.16204595947265624" />
<line x1="-532.912253734631" y1="-31.146950234021446" x2="-532.9160560576128" y2="-31.15165679112044" style="stroke:#F00;stroke-width:0.16204595947265624" />
<line x1="-532.9160560576128" y1="-31.15165679112044" x2="-532.9232525690056" y2="-31.160465211864217" style="stroke:#F00;stroke-width:0.16204595947265624" />
<line x1="-532.8880627245956" y1="-31.12174190616292" x2="-532.8921986230013" y2="-31.125842486604107" style="stroke:#F00;stroke-width:0.16204595947265624" />
<line x1="-532.8921986230013" y1="-31.125842486604107" x2="-532.9005421864586" y2="-31.13400130571595" style="stroke:#F00;stroke-width:0.16204595947265624" />
<line x1="-532.8748026489955" y1="-31.110320968089642" x2="-532.8791205073063" y2="-31.11406649906761" style="stroke:#F00;stroke-width:0.16204595947265624" />
<line x1="-532.8791205073063" y1="-31.11406649906761" x2="-532.8880627245956" y2="-31.12174190616292" style="stroke:#F00;stroke-width:0.16204595947265624" />
<line x1="-532.9005421864586" y1="-31.13400130571595" x2="-532.904506023454" y2="-31.138420794757735" style="stroke:#F00;stroke-width:0.16204595947265624" />
<line x1="-532.904506023454" y1="-31.138420794757735" x2="-532.912253734631" y2="-31.146950234021446" style="stroke:#F00;stroke-width:0.16204595947265624" />
<line x1="-532.9335357849736" y1="-31.174455724345812" x2="-532.9403764798574" y2="-31.185062441977315" style="stroke:#F00;stroke-width:0.16204595947265624" />
<line x1="-532.9403764798574" y1="-31.185062441977315" x2="-532.9524470369853" y2="-31.203518223934765" style="stroke:#F00;stroke-width:0.16204595947265624" />
<line x1="-532.9232525690056" y1="-31.160465211864217" x2="-532.9268837020262" y2="-31.165436497866715" style="stroke:#F00;stroke-width:0.16204595947265624" />
<line x1="-532.9268837020262" y1="-31.165436497866715" x2="-532.9335357849736" y2="-31.174455724345812" style="stroke:#F00;stroke-width:0.16204595947265624" />
<line x1="-532.9852916757594" y1="-31.264379621568803" x2="-532.9970516930521" y2="-31.290484517062797" style="stroke:#F00;stroke-width:0.16204595947265624" />
<line x1="-532.9970516930521" y1="-31.290484517062797" x2="-533.0138596935977" y2="-31.32728510521051" style="stroke:#F00;stroke-width:0.16204595947265624" />
<line x1="-532.9695596857697" y1="-31.23359848806614" x2="-532.9757273303326" y2="-31.245740000843668" style="stroke:#F00;stroke-width:0.16204595947265624" />
<line x1="-532.9757273303326" y1="-31.245740000843668" x2="-532.9852916757594" y2="-31.264379621568803" style="stroke:#F00;stroke-width:0.16204595947265624" />
<line x1="-533.9373058554593" y1="-33.99300595418915" x2="-534.0054793122193" y2="-34.13900575170598" style="stroke:#F00;stroke-width:0.16204595947265624" />
<line x1="-534.0054793122193" y1="-34.13900575170598" x2="-534.0595977071121" y2="-34.25406084616575" style="stroke:#F00;stroke-width:0.16204595947265624" />
<line x1="-534.1958818397192" y1="-34.50953328762815" x2="-534.3123190255179" y2="-34.698661143033604" style="stroke:#F00;stroke-width:0.16204595947265624" />
<line x1="-534.3123190255179" y1="-34.698661143033604" x2="-534.3486225709507" y2="-34.7572933044519" style="stroke:#F00;stroke-width:0.16204595947265624" />
<line x1="-534.5170358473146" y1="-34.99573800197919" x2="-534.6909008893459" y2="-35.212915440728665" style="stroke:#F00;stroke-width:0.16204595947265624" />
<line x1="-534.6909008893459" y1="-35.212915440728665" x2="-534.7002489317459" y2="-35.224526614921665" style="stroke:#F00;stroke-width:0.16204595947265624" />
<line x1="-534.894967051802" y1="-35.44123960138136" x2="-534.9021261234876" y2="-35.448493155319454" style="stroke:#F00;stroke-width:0.16204595947265624" />
<line x1="-534.9021261234876" y1="-35.448493155319454" x2="-535.0987356883428" y2="-35.64634652838343" style="stroke:#F00;stroke-width:0.16204595947265624" />
<line x1="-535.7314050177555" y1="-36.24482120157514" x2="-535.7474678964549" y2="-36.26289697028373" style="stroke:#F00;stroke-width:0.16204595947265624" />
<line x1="-535.7474678964549" y1="-36.26289697028373" x2="-535.7800081581196" y2="-36.29913549644602" style="stroke:#F00;stroke-width:0.16204595947265624" />
<line x1="-535.8264253423088" y1="-36.35535431097259" x2="-535.8424919347908" y2="-36.376959772233434" style="stroke:#F00;stroke-width:0.16204595947265624" />
<line x1="-535.8424919347908" y1="-36.376959772233434" x2="-535.8701486245052" y2="-36.4136935479279" style="stroke:#F00;stroke-width:0.16204595947265624" />
<line x1="-535.7800081581196" y1="-36.29913549644602" x2="-535.7961878002072" y2="-36.31889580422488" style="stroke:#F00;stroke-width:0.16204595947265624" />
<line x1="-535.7961878002072" y1="-36.31889580422488" x2="-535.8264253423088" y2="-36.35535431097259" style="stroke:#F00;stroke-width:0.16204595947265624" />
<line x1="-535.8701486245052" y1="-36.4136935479279" x2="-535.8857767235489" y2="-36.437318017586264" style="stroke:#F00;stroke-width:0.16204595947265624" />
<line x1="-535.8857767235489" y1="-36.437318017586264" x2="-535.9106414376022" y2="-36.47434965941439" style="stroke:#F00;stroke-width:0.16204595947265624" />
<line x1="-536.0263512711429" y1="-36.74198772111291" x2="-536.0301186697644" y2="-36.759209572344425" style="stroke:#F00;stroke-width:0.16204595947265624" />
<line x1="-536.0301186697644" y1="-36.759209572344425" x2="-536.0342833703646" y2="-36.77765304054168" style="stroke:#F00;stroke-width:0.16204595947265624" />
<line x1="-535.9793098220765" y1="-36.603649795215624" x2="-535.9854524860929" y2="-36.61866819289823" style="stroke:#F00;stroke-width:0.16204595947265624" />
<line x1="-535.9854524860929" y1="-36.61866819289823" x2="-535.9933196141592" y2="-36.637466294784204" style="stroke:#F00;stroke-width:0.16204595947265624" />
<line x1="-535.9473210843972" y1="-36.53777570387879" x2="-535.9543133468646" y2="-36.55163607286964" style="stroke:#F00;stroke-width:0.16204595947265624" />
<line x1="-535.9543133468646" y1="-36.55163607286964" x2="-535.9639702162053" y2="-36.5704119694777" style="stroke:#F00;stroke-width:0.16204595947265624" />
<line x1="-535.9639702162053" y1="-36.5704119694777" x2="-535.9705769821506" y2="-36.58485067727578" style="stroke:#F00;stroke-width:0.16204595947265624" />
<line x1="-535.9705769821506" y1="-36.58485067727578" x2="-535.9793098220765" y2="-36.603649795215624" style="stroke:#F00;stroke-width:0.16204595947265624" />
<line x1="-536.0058665543136" y1="-36.67183181411845" x2="-536.0109116240868" y2="-36.68799235043607" style="stroke:#F00;stroke-width:0.16204595947265624" />
<line x1="-536.0109116240868" y1="-36.68799235043607" x2="-536.0168874862596" y2="-36.706692472452026" style="stroke:#F00;stroke-width:0.16204595947265624" />
<line x1="-535.9933196141592" y1="-36.637466294784204" x2="-535.9989422407309" y2="-36.6530643183911" style="stroke:#F00;stroke-width:0.16204595947265624" />
<line x1="-535.9989422407309" y1="-36.6530643183911" x2="-536.0058665543136" y2="-36.67183181411845" style="stroke:#F00;stroke-width:0.16204595947265624" />
<line x1="-536.0168874862596" y1="-36.706692472452026" x2="-536.0212955153332" y2="-36.7233959210005" style="stroke:#F00;stroke-width:0.16204595947265624" />
<line x1="-536.0212955153332" y1="-36.7233959210005" x2="-536.0263512711429" y2="-36.74198772111291" style="stroke:#F00;stroke-width:0.16204595947265624" />
<line x1="-536.0487454353135" y1="-36.8861249779922" x2="-536.0499162018286" y2="-36.92436868784631" style="stroke:#F00;stroke-width:0.16204595947265624" />
<line x1="-536.0499162018286" y1="-36.92436868784631" x2="-536.0511680884274" y2="-36.959007680463245" style="stroke:#F00;stroke-width:0.16204595947265624" />
<line x1="-536.0406517514243" y1="-36.81361106129553" x2="-536.042984546456" y2="-36.8317688177654" style="stroke:#F00;stroke-width:0.16204595947265624" />
<line x1="-536.042984546456" y1="-36.8317688177654" x2="-536.0454526724101" y2="-36.84979340320958" style="stroke:#F00;stroke-width:0.16204595947265624" />
<line x1="-536.0342833703646" y1="-36.77765304054168" x2="-536.0373496755806" y2="-36.79535780816285" style="stroke:#F00;stroke-width:0.16204595947265624" />
<line x1="-536.0373496755806" y1="-36.79535780816285" x2="-536.0406517514243" y2="-36.81361106129553" style="stroke:#F00;stroke-width:0.16204595947265624" />
<line x1="-536.0454526724101" y1="-36.84979340320958" x2="-536.0470821442756" y2="-36.868364799932245" style="stroke:#F00;stroke-width:0.16204595947265624" />
<line x1="-536.0470821442756" y1="-36.868364799932245" x2="-536.0487454353135" y2="-36.8861249779922" style="stroke:#F00;stroke-width:0.16204595947265624" />
<line x1="-536.0511680884274" y1="-36.959007680463245" x2="-536.0496906822676" y2="-36.99856833096727" style="stroke:#F00;stroke-width:0.16204595947265624" />
<line x1="-536.0496906822676" y1="-36.99856833096727" x2="-536.0486152067768" y2="-37.03188055215849" style="stroke:#F00;stroke-width:0.16204595947265624" />
<line x1="-535.9914368925744" y1="-37.31443294059558" x2="-535.975346080997" y2="-37.35647080383616" style="stroke:#F00;stroke-width:0.16204595947265624" />
<line x1="-535.975346080997" y1="-37.35647080383616" x2="-535.9657347855626" y2="-37.38185736660478" style="stroke:#F00;stroke-width:0.16204595947265624" />
<line x1="-536.0293672554154" y1="-37.17514148750922" x2="-536.0194196649579" y2="-37.21685656891005" style="stroke:#F00;stroke-width:0.16204595947265624" />
<line x1="-536.0194196649579" y1="-37.21685656891005" x2="-536.0127268831085" y2="-37.24543512938076" style="stroke:#F00;stroke-width:0.16204595947265624" />
<line x1="-536.0413326347136" y1="-37.103848700038995" x2="-536.0343623486349" y2="-37.14500443991953" style="stroke:#F00;stroke-width:0.16204595947265624" />
<line x1="-536.0343623486349" y1="-37.14500443991953" x2="-536.0293672554154" y2="-37.17514148750922" style="stroke:#F00;stroke-width:0.16204595947265624" />
<line x1="-536.0127268831085" y1="-37.24543512938076" x2="-535.9996959735535" y2="-37.28744460790473" style="stroke:#F00;stroke-width:0.16204595947265624" />
<line x1="-535.9996959735535" y1="-37.28744460790473" x2="-535.9914368925744" y2="-37.31443294059558" style="stroke:#F00;stroke-width:0.16204595947265624" />
<line x1="-535.9357381292812" y1="-37.447487322397826" x2="-535.9136507674802" y2="-37.488884276032316" style="stroke:#F00;stroke-width:0.16204595947265624" />
<line x1="-535.9136507674802" y1="-37.488884276032316" x2="-535.9018721911212" y2="-37.51115020651056" style="stroke:#F00;stroke-width:0.16204595947265624" />
<line x1="-535.9657347855626" y1="-37.38185736660478" x2="-535.9465534305752" y2="-37.423682894920304" style="stroke:#F00;stroke-width:0.16204595947265624" />
<line x1="-535.9465534305752" y1="-37.423682894920304" x2="-535.9357381292812" y2="-37.447487322397826" style="stroke:#F00;stroke-width:0.16204595947265624" />
<line x1="-535.9018721911212" y1="-37.51115020651056" x2="-535.8769699935374" y2="-37.55195256574197" style="stroke:#F00;stroke-width:0.16204595947265624" />
<line x1="-535.8769699935374" y1="-37.55195256574197" x2="-535.8643607522602" y2="-37.572746354276056" style="stroke:#F00;stroke-width:0.16204595947265624" />
<line x1="-535.6868696094126" y1="-37.795740075121294" x2="-535.6135428568361" y2="-37.867097499064045" style="stroke:#F00;stroke-width:0.16204595947265624" />
<line x1="-535.6135428568361" y1="-37.867097499064045" x2="-535.5846473204347" y2="-37.89530228394132" style="stroke:#F00;stroke-width:0.16204595947265624" />
<line x1="-535.7808342075681" y1="-37.6883722761106" x2="-535.7490175061633" y2="-37.72632884258691" style="stroke:#F00;stroke-width:0.16204595947265624" />
<line x1="-535.7490175061633" y1="-37.72632884258691" x2="-535.7350455150125" y2="-37.74306879924387" style="stroke:#F00;stroke-width:0.16204595947265624" />
<line x1="-535.8240488678939" y1="-37.63160610765841" x2="-535.794445809902" y2="-37.670444986122604" style="stroke:#F00;stroke-width:0.16204595947265624" />
<line x1="-535.794445809902" y1="-37.670444986122604" x2="-535.7808342075681" y2="-37.6883722761106" style="stroke:#F00;stroke-width:0.16204595947265624" />
<line x1="-535.7350455150125" y1="-37.74306879924387" x2="-535.701128964175" y2="-37.780097830128796" style="stroke:#F00;stroke-width:0.16204595947265624" />
<line x1="-535.701128964175" y1="-37.780097830128796" x2="-535.6868696094126" y2="-37.795740075121294" style="stroke:#F00;stroke-width:0.16204595947265624" />
<line x1="-535.5846473204347" y1="-37.89530228394132" x2="-535.5053226426268" y2="-37.96320346248301" style="stroke:#F00;stroke-width:0.16204595947265624" />
<line x1="-535.5053226426268" y1="-37.96320346248301" x2="-535.4762233935638" y2="-37.988146344918334" style="stroke:#F00;stroke-width:0.16204595947265624" />
<line x1="-535.2494088409369" y1="-38.15960866964848" x2="-535.0678833974977" y2="-38.284562138814735" style="stroke:#F00;stroke-width:0.16204595947265624" />
<line x1="-535.0678833974977" y1="-38.284562138814735" x2="-535.0150239762901" y2="-38.32092222100477" style="stroke:#F00;stroke-width:0.16204595947265624" />
<line x1="-533.8610472789095" y1="-39.15466055968395" x2="-533.767948517768" y2="-39.243934654795424" style="stroke:#F00;stroke-width:0.16204595947265624" />
<line x1="-533.767948517768" y1="-39.243934654795424" x2="-533.7577333794155" y2="-39.25368729970409" style="stroke:#F00;stroke-width:0.16204595947265624" />
<line x1="-533.7577333794155" y1="-39.25368729970409" x2="-533.6667855977947" y2="-39.348543372115266" style="stroke:#F00;stroke-width:0.16204595947265624" />
<line x1="-533.6667855977947" y1="-39.348543372115266" x2="-533.658581058072" y2="-39.357062602347824" style="stroke:#F00;stroke-width:0.16204595947265624" />
<line x1="-533.4733752419783" y1="-39.5773994261517" x2="-533.390364844739" y2="-39.69054652928647" style="stroke:#F00;stroke-width:0.16204595947265624" />
<line x1="-533.390364844739" y1="-39.69054652928647" x2="-533.3880475938539" y2="-39.6936913515146" style="stroke:#F00;stroke-width:0.16204595947265624" />
<line x1="-533.5635950099663" y1="-39.46512743085412" x2="-533.4776025850852" y2="-39.572164060287605" style="stroke:#F00;stroke-width:0.16204595947265624" />
<line x1="-533.4776025850852" y1="-39.572164060287605" x2="-533.4733752419783" y2="-39.5773994261517" style="stroke:#F00;stroke-width:0.16204595947265624" />
<line x1="-533.3880475938539" y1="-39.6936913515146" x2="-533.3083637871667" y2="-39.812987816414534" style="stroke:#F00;stroke-width:0.16204595947265624" />
<line x1="-533.3083637871667" y1="-39.812987816414534" x2="-533.3078476001765" y2="-39.81375735491217" style="stroke:#F00;stroke-width:0.16204595947265624" />
<line x1="-533.1611711891085" y1="-40.06209510708701" x2="-533.1562686216043" y2="-40.07212553142235" style="stroke:#F00;stroke-width:0.16204595947265624" />
<line x1="-533.1562686216043" y1="-40.07212553142235" x2="-533.0338655188751" y2="-40.32093220464311" style="stroke:#F00;stroke-width:0.16204595947265624" />
<line x1="-533.2320482744076" y1="-39.93662750259725" x2="-533.2309662121719" y2="-39.93855302032459" style="stroke:#F00;stroke-width:0.16204595947265624" />
<line x1="-533.2309662121719" y1="-39.93855302032459" x2="-533.1611711891085" y2="-40.06209510708701" style="stroke:#F00;stroke-width:0.16204595947265624" />
<line x1="-532.9237662412212" y1="-40.58897288344946" x2="-532.9105392453656" y2="-40.6267004210702" style="stroke:#F00;stroke-width:0.16204595947265624" />
<line x1="-532.9105392453656" y1="-40.6267004210702" x2="-532.8272356381646" y2="-40.86261105521883" style="stroke:#F00;stroke-width:0.16204595947265624" />
<line x1="-532.7348577678074" y1="-41.13823199495542" x2="-532.7103537453415" y2="-41.20373659304823" style="stroke:#F00;stroke-width:0.16204595947265624" />
<line x1="-532.7103537453415" y1="-41.20373659304823" x2="-532.6325993735751" y2="-41.41071189261915" style="stroke:#F00;stroke-width:0.16204595947265624" />
<line x1="-532.496288214989" y1="-41.66569854033345" x2="-532.4892935889449" y2="-41.674899698418905" style="stroke:#F00;stroke-width:0.16204595947265624" />
<line x1="-532.4892935889449" y1="-41.674899698418905" x2="-532.4744213484198" y2="-41.69453644209797" style="stroke:#F00;stroke-width:0.16204595947265624" />
<line x1="-532.5713356381677" y1="-41.54191016900763" x2="-532.5606730265284" y2="-41.56098828184307" style="stroke:#F00;stroke-width:0.16204595947265624" />
<line x1="-532.5606730265284" y1="-41.56098828184307" x2="-532.536005471031" y2="-41.60514908757915" style="stroke:#F00;stroke-width:0.16204595947265624" />
<line x1="-532.6032510955445" y1="-41.476917566053274" x2="-532.5939581405796" y2="-41.49584596735874" style="stroke:#F00;stroke-width:0.16204595947265624" />
<line x1="-532.5939581405796" y1="-41.49584596735874" x2="-532.5713356381677" y2="-41.54191016900763" style="stroke:#F00;stroke-width:0.16204595947265624" />
<line x1="-532.536005471031" y1="-41.60514908757915" x2="-532.5300459903982" y2="-41.61466715852963" style="stroke:#F00;stroke-width:0.16204595947265624" />
<line x1="-532.5300459903982" y1="-41.61466715852963" x2="-532.5167743342505" y2="-41.63582924788722" style="stroke:#F00;stroke-width:0.16204595947265624" />
<line x1="-532.5167743342505" y1="-41.63582924788722" x2="-532.5103203207482" y2="-41.64523110562091" style="stroke:#F00;stroke-width:0.16204595947265624" />
<line x1="-532.5103203207482" y1="-41.64523110562091" x2="-532.496288214989" y2="-41.66569854033345" style="stroke:#F00;stroke-width:0.16204595947265624" />
<line x1="-532.3986820937744" y1="-41.77190034710712" x2="-532.3939215299312" y2="-41.775556717339256" style="stroke:#F00;stroke-width:0.16204595947265624" />
<line x1="-532.3939215299312" y1="-41.775556717339256" x2="-532.3843693637973" y2="-41.78293106444122" style="stroke:#F00;stroke-width:0.16204595947265624" />
<line x1="-532.4510063737129" y1="-41.72207638141397" x2="-532.4427557805709" y2="-41.730540759500116" style="stroke:#F00;stroke-width:0.16204595947265624" />
<line x1="-532.4427557805709" y1="-41.730540759500116" x2="-532.4257953704109" y2="-41.74800659505154" style="stroke:#F00;stroke-width:0.16204595947265624" />
<line x1="-532.4744213484198" y1="-41.69453644209797" x2="-532.4668406162785" y2="-41.70343235575236" style="stroke:#F00;stroke-width:0.16204595947265624" />
<line x1="-532.4668406162785" y1="-41.70343235575236" x2="-532.4510063737129" y2="-41.72207638141397" style="stroke:#F00;stroke-width:0.16204595947265624" />
<line x1="-532.4257953704109" y1="-41.74800659505154" x2="-532.4214003852177" y2="-41.75203159120197" style="stroke:#F00;stroke-width:0.16204595947265624" />
<line x1="-532.4214003852177" y1="-41.75203159120197" x2="-532.4124766311786" y2="-41.76023541049771" style="stroke:#F00;stroke-width:0.16204595947265624" />
<line x1="-532.4124766311786" y1="-41.76023541049771" x2="-532.4078786259153" y2="-41.76408888916962" style="stroke:#F00;stroke-width:0.16204595947265624" />
<line x1="-532.4078786259153" y1="-41.76408888916962" x2="-532.3986820937744" y2="-41.77190034710712" style="stroke:#F00;stroke-width:0.16204595947265624" />
<line x1="-532.3383786630899" y1="-41.81149104473727" x2="-532.3328796228815" y2="-41.814083894987455" style="stroke:#F00;stroke-width:0.16204595947265624" />
<line x1="-532.3328796228815" y1="-41.814083894987455" x2="-532.3220898875807" y2="-41.81927275483832" style="stroke:#F00;stroke-width:0.16204595947265624" />
<line x1="-532.3695382450302" y1="-41.79325588521074" x2="-532.3643948999733" y2="-41.79643339293641" style="stroke:#F00;stroke-width:0.16204595947265624" />
<line x1="-532.3643948999733" y1="-41.79643339293641" x2="-532.3542082207836" y2="-41.80279961995308" style="stroke:#F00;stroke-width:0.16204595947265624" />
<line x1="-532.3843693637973" y1="-41.78293106444122" x2="-532.3794067219911" y2="-41.786360908898466" style="stroke:#F00;stroke-width:0.16204595947265624" />
<line x1="-532.3794067219911" y1="-41.786360908898466" x2="-532.3695382450302" y2="-41.79325588521074" style="stroke:#F00;stroke-width:0.16204595947265624" />
<line x1="-532.3542082207836" y1="-41.80279961995308" x2="-532.3488858848013" y2="-41.80569536677518" style="stroke:#F00;stroke-width:0.16204595947265624" />
<line x1="-532.3488858848013" y1="-41.80569536677518" x2="-532.3383786630899" y2="-41.81149104473727" style="stroke:#F00;stroke-width:0.16204595947265624" />
<line x1="-532.3053823525596" y1="-41.826093513347544" x2="-532.2940593676539" y2="-41.82997366281614" style="stroke:#F00;stroke-width:0.16204595947265624" />
<line x1="-532.2940593676539" y1="-41.82997366281614" x2="-532.2882965063534" y2="-41.83190137841173" style="stroke:#F00;stroke-width:0.16204595947265624" />
<line x1="-532.3220898875807" y1="-41.81927275483832" x2="-532.3110167034657" y2="-41.82382242049531" style="stroke:#F00;stroke-width:0.16204595947265624" />
<line x1="-532.3110167034657" y1="-41.82382242049531" x2="-532.3053823525596" y2="-41.826093513347544" style="stroke:#F00;stroke-width:0.16204595947265624" />
<line x1="-532.2882965063534" y1="-41.83190137841173" x2="-532.2767607808826" y2="-41.835100647410535" style="stroke:#F00;stroke-width:0.16204595947265624" />
<line x1="-532.2767607808826" y1="-41.835100647410535" x2="-532.2708934706636" y2="-41.836677211195145" style="stroke:#F00;stroke-width:0.16204595947265624" />
<line x1="-531.9875078008347" y1="-41.809411452347" x2="-531.9405950910207" y2="-41.79246231768725" style="stroke:#F00;stroke-width:0.16204595947265624" />
<line x1="-531.9405950910207" y1="-41.79246231768725" x2="-531.9196478509089" y2="-41.7847971079869" style="stroke:#F00;stroke-width:0.16204595947265624" />
<line x1="-532.1277085457541" y1="-41.842519449220376" x2="-532.1037812011909" y2="-41.83880041331704" style="stroke:#F00;stroke-width:0.16204595947265624" />
<line x1="-532.1037812011909" y1="-41.83880041331704" x2="-532.0921407262391" y2="-41.83691576849273" style="stroke:#F00;stroke-width:0.16204595947265624" />
<line x1="-532.199630454713" y1="-41.846129683926364" x2="-532.1876371241107" y2="-41.84628546625018" style="stroke:#F00;stroke-width:0.16204595947265624" />
<line x1="-532.1876371241107" y1="-41.84628546625018" x2="-532.1816094944949" y2="-41.84631437592633" style="stroke:#F00;stroke-width:0.16204595947265624" />
<line x1="-532.2355254118954" y1="-41.84324780852834" x2="-532.2236174628667" y2="-41.8445297901725" style="stroke:#F00;stroke-width:0.16204595947265624" />
<line x1="-532.2236174628667" y1="-41.8445297901725" x2="-532.2176027542222" y2="-41.845126158025955" style="stroke:#F00;stroke-width:0.16204595947265624" />
<line x1="-532.2532756803346" y1="-41.8404424599588" x2="-532.2415082771888" y2="-41.842339408215054" style="stroke:#F00;stroke-width:0.16204595947265624" />
<line x1="-532.2415082771888" y1="-41.842339408215054" x2="-532.2355254118954" y2="-41.84324780852834" style="stroke:#F00;stroke-width:0.16204595947265624" />
<line x1="-532.2176027542222" y1="-41.845126158025955" x2="-532.2056329384529" y2="-41.845827007505896" style="stroke:#F00;stroke-width:0.16204595947265624" />
<line x1="-532.2056329384529" y1="-41.845827007505896" x2="-532.199630454713" y2="-41.846129683926364" style="stroke:#F00;stroke-width:0.16204595947265624" />
<line x1="-532.163601477683" y1="-41.84573481950283" x2="-532.1395506537048" y2="-41.843639894987625" style="stroke:#F00;stroke-width:0.16204595947265624" />
<line x1="-532.1395506537048" y1="-41.843639894987625" x2="-532.1277085457541" y2="-41.842519449220376" style="stroke:#F00;stroke-width:0.16204595947265624" />
<line x1="-532.1816094944949" y1="-41.84631437592633" x2="-532.1695906691798" y2="-41.845958387877324" style="stroke:#F00;stroke-width:0.16204595947265624" />
<line x1="-532.1695906691798" y1="-41.845958387877324" x2="-532.163601477683" y2="-41.84573481950283" style="stroke:#F00;stroke-width:0.16204595947265624" />
<line x1="-532.0568617811545" y1="-41.82932708076187" x2="-532.0331603785712" y2="-41.82306965112433" style="stroke:#F00;stroke-width:0.16204595947265624" />
<line x1="-532.0331603785712" y1="-41.82306965112433" x2="-532.0220164398164" y2="-41.82006189497497" style="stroke:#F00;stroke-width:0.16204595947265624" />
<line x1="-532.0921407262391" y1="-41.83691576849273" x2="-532.0682879796373" y2="-41.83183033693774" style="stroke:#F00;stroke-width:0.16204595947265624" />
<line x1="-532.0682879796373" y1="-41.83183033693774" x2="-532.0568617811545" y2="-41.82932708076187" style="stroke:#F00;stroke-width:0.16204595947265624" />
<line x1="-532.0220164398164" y1="-41.82006189497497" x2="-531.9984207932781" y2="-41.81281573434036" style="stroke:#F00;stroke-width:0.16204595947265624" />
<line x1="-531.9984207932781" y1="-41.81281573434036" x2="-531.9875078008347" y2="-41.809411452347" style="stroke:#F00;stroke-width:0.16204595947265624" />
<line x1="-531.8531126836733" y1="-41.75687647712167" x2="-531.7597724249068" y2="-41.71215928777669" style="stroke:#F00;stroke-width:0.16204595947265624" />
<line x1="-531.7597724249068" y1="-41.71215928777669" x2="-531.7229940942607" y2="-41.69440862606744" style="stroke:#F00;stroke-width:0.16204595947265624" />
<line x1="-531.9196478509089" y1="-41.7847971079869" x2="-531.87304851883" y2="-41.76530108709926" style="stroke:#F00;stroke-width:0.16204595947265624" />
<line x1="-531.87304851883" y1="-41.76530108709926" x2="-531.8531126836733" y2="-41.75687647712167" style="stroke:#F00;stroke-width:0.16204595947265624" />
<line x1="-526.6191013153706" y1="-39.86996396200302" x2="-526.5885720244316" y2="-39.859520008032476" style="stroke:#F00;stroke-width:0.16204595947265624" />
<line x1="-526.5885720244316" y1="-39.859520008032476" x2="-526.5518060457565" y2="-39.8468524334243" style="stroke:#F00;stroke-width:0.16204595947265624" />
<line x1="-526.7558529410393" y1="-39.90918357409206" x2="-526.6959081301065" y2="-39.89206523657721" style="stroke:#F00;stroke-width:0.16204595947265624" />
<line x1="-526.6959081301065" y1="-39.89206523657721" x2="-526.6191013153706" y2="-39.86996396200302" style="stroke:#F00;stroke-width:0.16204595947265624" />
<line x1="-526.4857860667421" y1="-39.82038788690661" x2="-526.4704722006236" y2="-39.8133938974423" style="stroke:#F00;stroke-width:0.16204595947265624" />
<line x1="-526.4704722006236" y1="-39.8133938974423" x2="-526.4534721069122" y2="-39.80556135692145" style="stroke:#F00;stroke-width:0.16204595947265624" />
<line x1="-526.5518060457565" y1="-39.8468524334243" x2="-526.521108207038" y2="-39.8345992046061" style="stroke:#F00;stroke-width:0.16204595947265624" />
<line x1="-526.521108207038" y1="-39.8345992046061" x2="-526.4857860667421" y2="-39.82038788690661" style="stroke:#F00;stroke-width:0.16204595947265624" />
<line x1="-526.4217745344115" y1="-39.78945835215704" x2="-526.4067397741408" y2="-39.7809349645333" style="stroke:#F00;stroke-width:0.16204595947265624" />
<line x1="-526.4067397741408" y1="-39.7809349645333" x2="-526.3908769595025" y2="-39.77186721607869" style="stroke:#F00;stroke-width:0.16204595947265624" />
<line x1="-526.4534721069122" y1="-39.80556135692145" x2="-526.4382538112715" y2="-39.79786398742117" style="stroke:#F00;stroke-width:0.16204595947265624" />
<line x1="-526.4382538112715" y1="-39.79786398742117" x2="-526.4217745344115" y2="-39.78945835215704" style="stroke:#F00;stroke-width:0.16204595947265624" />
<line x1="-526.3908769595025" y1="-39.77186721607869" x2="-526.3761471827912" y2="-39.76238159640985" style="stroke:#F00;stroke-width:0.16204595947265624" />
<line x1="-526.3761471827912" y1="-39.76238159640985" x2="-526.3609935970345" y2="-39.752569263024405" style="stroke:#F00;stroke-width:0.16204595947265624" />
<line x1="-526.2082257565522" y1="-39.51731465608258" x2="-526.2072254629331" y2="-39.50697385870413" style="stroke:#F00;stroke-width:0.16204595947265624" />
<line x1="-526.2072254629331" y1="-39.50697385870413" x2="-526.2065083303502" y2="-39.4991702439282" style="stroke:#F00;stroke-width:0.16204595947265624" />
<line x1="-526.2580768775357" y1="-39.652328172120306" x2="-526.2528894343031" y2="-39.64422706337828" style="stroke:#F00;stroke-width:0.16204595947265624" />
<line x1="-526.2528894343031" y1="-39.64422706337828" x2="-526.2483397777333" y2="-39.63705947683733" style="stroke:#F00;stroke-width:0.16204595947265624" />
<line x1="-526.3049128757727" y1="-39.70725559807423" x2="-526.2983761999071" y2="-39.700698177335006" style="stroke:#F00;stroke-width:0.16204595947265624" />
<line x1="-526.2983761999071" y1="-39.700698177335006" x2="-526.2922098839387" y2="-39.694465270296526" style="stroke:#F00;stroke-width:0.16204595947265624" />
<line x1="-526.3320949385896" y1="-39.731031699068254" x2="-526.325099804615" y2="-39.725183282224215" style="stroke:#F00;stroke-width:0.16204595947265624" />
<line x1="-526.325099804615" y1="-39.725183282224215" x2="-526.3182595033661" y2="-39.71943613364334" style="stroke:#F00;stroke-width:0.16204595947265624" />
<line x1="-526.3182595033661" y1="-39.71943613364334" x2="-526.3114294838166" y2="-39.713241331984804" style="stroke:#F00;stroke-width:0.16204595947265624" />
<line x1="-526.3114294838166" y1="-39.713241331984804" x2="-526.3049128757727" y2="-39.70725559807423" style="stroke:#F00;stroke-width:0.16204595947265624" />
<line x1="-526.2800873383682" y1="-39.68105040565813" x2="-526.2741181965903" y2="-39.67372505019448" style="stroke:#F00;stroke-width:0.16204595947265624" />
<line x1="-526.2741181965903" y1="-39.67372505019448" x2="-526.2686700568784" y2="-39.66699920364495" style="stroke:#F00;stroke-width:0.16204595947265624" />
<line x1="-526.2922098839387" y1="-39.694465270296526" x2="-526.2859071137077" y2="-39.68752898806984" style="stroke:#F00;stroke-width:0.16204595947265624" />
<line x1="-526.2859071137077" y1="-39.68752898806984" x2="-526.2800873383682" y2="-39.68105040565813" style="stroke:#F00;stroke-width:0.16204595947265624" />
<line x1="-526.2686700568784" y1="-39.66699920364495" x2="-526.263072404159" y2="-39.65928247032488" style="stroke:#F00;stroke-width:0.16204595947265624" />
<line x1="-526.263072404159" y1="-39.65928247032488" x2="-526.2580768775357" y2="-39.652328172120306" style="stroke:#F00;stroke-width:0.16204595947265624" />
<line x1="-526.2249568943724" y1="-39.58798471429532" x2="-526.2217883316362" y2="-39.578500806785456" style="stroke:#F00;stroke-width:0.16204595947265624" />
<line x1="-526.2217883316362" y1="-39.578500806785456" x2="-526.2192190359608" y2="-39.570741850040825" style="stroke:#F00;stroke-width:0.16204595947265624" />
<line x1="-526.2395476819142" y1="-39.6212106859712" x2="-526.2353018570802" y2="-39.61236017570668" style="stroke:#F00;stroke-width:0.16204595947265624" />
<line x1="-526.2353018570802" y1="-39.61236017570668" x2="-526.2317330759382" y2="-39.604828681356814" style="stroke:#F00;stroke-width:0.16204595947265624" />
<line x1="-526.2483397777333" y1="-39.63705947683733" x2="-526.2436026020106" y2="-39.628574515247934" style="stroke:#F00;stroke-width:0.16204595947265624" />
<line x1="-526.2436026020106" y1="-39.628574515247934" x2="-526.2395476819142" y2="-39.6212106859712" style="stroke:#F00;stroke-width:0.16204595947265624" />
<line x1="-526.2317330759382" y1="-39.604828681356814" x2="-526.2280210258014" y2="-39.595646861293076" style="stroke:#F00;stroke-width:0.16204595947265624" />
<line x1="-526.2280210258014" y1="-39.595646861293076" x2="-526.2249568943724" y2="-39.58798471429532" style="stroke:#F00;stroke-width:0.16204595947265624" />
<line x1="-526.2145461469122" y1="-39.55316995515735" x2="-526.2124942265881" y2="-39.54318332896163" style="stroke:#F00;stroke-width:0.16204595947265624" />
<line x1="-526.2124942265881" y1="-39.54318332896163" x2="-526.2108843688206" y2="-39.53533692393098" style="stroke:#F00;stroke-width:0.16204595947265624" />
<line x1="-526.2192190359608" y1="-39.570741850040825" x2="-526.2166038698921" y2="-39.560987914320854" style="stroke:#F00;stroke-width:0.16204595947265624" />
<line x1="-526.2166038698921" y1="-39.560987914320854" x2="-526.2145461469122" y2="-39.55316995515735" style="stroke:#F00;stroke-width:0.16204595947265624" />
<line x1="-526.2108843688206" y1="-39.53533692393098" x2="-526.2093711529243" y2="-39.525154566217125" style="stroke:#F00;stroke-width:0.16204595947265624" />
<line x1="-526.2093711529243" y1="-39.525154566217125" x2="-526.2082257565522" y2="-39.51731465608258" style="stroke:#F00;stroke-width:0.16204595947265624" />
<line x1="-526.2154480775705" y1="-39.37210563597395" x2="-526.2198974580034" y2="-39.35028566887864" style="stroke:#F00;stroke-width:0.16204595947265624" />
<line x1="-526.2198974580034" y1="-39.35028566887864" x2="-526.2227429891965" y2="-39.336329699316686" style="stroke:#F00;stroke-width:0.16204595947265624" />
<line x1="-526.2064889307229" y1="-39.44449778036137" x2="-526.2084841063629" y2="-39.422999760902016" style="stroke:#F00;stroke-width:0.16204595947265624" />
<line x1="-526.2084841063629" y1="-39.422999760902016" x2="-526.2098834775045" y2="-39.4081769153194" style="stroke:#F00;stroke-width:0.16204595947265624" />
<line x1="-526.2057410441638" y1="-39.480962806018894" x2="-526.2057214049186" y2="-39.470391530716256" style="stroke:#F00;stroke-width:0.16204595947265624" />
<line x1="-526.2057214049186" y1="-39.470391530716256" x2="-526.2057311948133" y2="-39.4627248653283" style="stroke:#F00;stroke-width:0.16204595947265624" />
<line x1="-526.2065083303502" y1="-39.4991702439282" x2="-526.2060649059441" y2="-39.4887050733036" style="stroke:#F00;stroke-width:0.16204595947265624" />
<line x1="-526.2060649059441" y1="-39.4887050733036" x2="-526.2057410441638" y2="-39.480962806018894" style="stroke:#F00;stroke-width:0.16204595947265624" />
<line x1="-526.2057311948133" y1="-39.4627248653283" x2="-526.20617791521" y2="-39.452075467766235" style="stroke:#F00;stroke-width:0.16204595947265624" />
<line x1="-526.20617791521" y1="-39.452075467766235" x2="-526.2064889307229" y2="-39.44449778036137" style="stroke:#F00;stroke-width:0.16204595947265624" />
<line x1="-526.2098834775045" y1="-39.4081769153194" x2="-526.2132363828069" y2="-39.38649704657793" style="stroke:#F00;stroke-width:0.16204595947265624" />
<line x1="-526.2132363828069" y1="-39.38649704657793" x2="-526.2154480775705" y2="-39.37210563597395" style="stroke:#F00;stroke-width:0.16204595947265624" />
<line x1="-526.2314540437051" y1="-39.300869924743694" x2="-526.2445601186243" y2="-39.25656880725182" style="stroke:#F00;stroke-width:0.16204595947265624" />
<line x1="-526.2445601186243" y1="-39.25656880725182" x2="-526.2521352574481" y2="-39.23084678833597" style="stroke:#F00;stroke-width:0.16204595947265624" />
<line x1="-526.2227429891965" y1="-39.336329699316686" x2="-526.2281651335" y2="-39.31439654776909" style="stroke:#F00;stroke-width:0.16204595947265624" />
<line x1="-526.2281651335" y1="-39.31439654776909" x2="-526.2314540437051" y2="-39.300869924743694" style="stroke:#F00;stroke-width:0.16204595947265624" />
<line x1="-526.3577028856355" y1="-38.961043985633125" x2="-526.446576709875" y2="-38.76327162841129" style="stroke:#F00;stroke-width:0.16204595947265624" />
<line x1="-526.446576709875" y1="-38.76327162841129" x2="-526.4760382984202" y2="-38.69704749849619" style="stroke:#F00;stroke-width:0.16204595947265624" />
<line x1="-526.3017692759412" y1="-39.094644923688676" x2="-526.3406090035198" y2="-39.0021110509555" style="stroke:#F00;stroke-width:0.16204595947265624" />
<line x1="-526.3406090035198" y1="-39.0021110509555" x2="-526.3577028856355" y2="-38.961043985633125" style="stroke:#F00;stroke-width:0.16204595947265624" />
<line x1="-526.5920880631085" y1="-38.43257405911405" x2="-526.6855981235781" y2="-38.19483748735795" style="stroke:#F00;stroke-width:0.16204595947265624" />
<line x1="-526.6855981235781" y1="-38.19483748735795" x2="-526.6974227171935" y2="-38.164390941867204" style="stroke:#F00;stroke-width:0.16204595947265624" />
<line x1="-526.817736032243" y1="-37.76072192776468" x2="-526.8203125" y2="-37.750271675127" style="stroke:#F00;stroke-width:0.16204595947265624" />
<line x1="-526.8203125" y1="-37.750271675127" x2="-526.8203939348984" y2="-37.74986339294423" style="stroke:#F00;stroke-width:0.16204595947265624" />
<line x1="-526.8203939348984" y1="-37.74986339294423" x2="-526.8481521828479" y2="-37.60696992787972" style="stroke:#F00;stroke-width:0.16204595947265624" />
<line x1="-526.7852527294068" y1="-37.889890432898135" x2="-526.817736032243" y2="-37.76072192776468" style="stroke:#F00;stroke-width:0.16204595947265624" />
<line x1="-526.7440249131362" y1="-38.02787057298545" x2="-526.7837794382217" y2="-37.89490282930528" style="stroke:#F00;stroke-width:0.16204595947265624" />
<line x1="-526.7837794382217" y1="-37.89490282930528" x2="-526.7852527294068" y2="-37.889890432898135" style="stroke:#F00;stroke-width:0.16204595947265624" />
<line x1="-526.8791574316175" y1="-37.31641836246057" x2="-526.8795783569369" y2="-37.297732865110774" style="stroke:#F00;stroke-width:0.16204595947265624" />
<line x1="-526.8795783569369" y1="-37.297732865110774" x2="-526.8817665952125" y2="-37.17076571781398" style="stroke:#F00;stroke-width:0.16204595947265624" />
<line x1="-526.8680262215947" y1="-37.46201165174354" x2="-526.8690249152984" y2="-37.44966792247936" style="stroke:#F00;stroke-width:0.16204595947265624" />
<line x1="-526.8690249152984" y1="-37.44966792247936" x2="-526.8791574316175" y2="-37.31641836246057" style="stroke:#F00;stroke-width:0.16204595947265624" />
<line x1="-526.8817665952125" y1="-37.17076571781398" x2="-526.8809964983878" y2="-37.14561039300748" style="stroke:#F00;stroke-width:0.16204595947265624" />
<line x1="-526.8809964983878" y1="-37.14561039300748" x2="-526.8767643531638" y2="-37.02554271448285" style="stroke:#F00;stroke-width:0.16204595947265624" />
<line x1="-526.8469523706403" y1="-36.737060661662" x2="-526.8299646377133" y2="-36.64255098904809" style="stroke:#F00;stroke-width:0.16204595947265624" />
<line x1="-526.8299646377133" y1="-36.64255098904809" x2="-526.7952012436309" y2="-36.45328283653762" style="stroke:#F00;stroke-width:0.16204595947265624" />
<line x1="-526.8649093309816" y1="-36.88078382234557" x2="-526.8602437957713" y2="-36.8424431796338" style="stroke:#F00;stroke-width:0.16204595947265624" />
<line x1="-526.8602437957713" y1="-36.8424431796338" x2="-526.8469523706403" y2="-36.737060661662" style="stroke:#F00;stroke-width:0.16204595947265624" />
<line x1="-526.7260861610285" y1="-36.17478377017715" x2="-526.6809665126543" y2="-36.02561050016033" style="stroke:#F00;stroke-width:0.16204595947265624" />
<line x1="-526.6809665126543" y1="-36.02561050016033" x2="-526.6430853149005" y2="-35.901808452149446" style="stroke:#F00;stroke-width:0.16204595947265624" />
<line x1="-525.8987369528886" y1="-34.08287090382307" x2="-525.8922719641732" y2="-34.06029410273996" style="stroke:#F00;stroke-width:0.16204595947265624" />
<line x1="-525.8922719641732" y1="-34.06029410273996" x2="-525.8796499882855" y2="-34.015882656454785" style="stroke:#F00;stroke-width:0.16204595947265624" />
<line x1="-525.9447744672947" y1="-34.21449712026504" x2="-525.9314734891846" y2="-34.17644941227597" style="stroke:#F00;stroke-width:0.16204595947265624" />
<line x1="-525.9314734891846" y1="-34.17644941227597" x2="-525.8987369528886" y2="-34.08287090382307" style="stroke:#F00;stroke-width:0.16204595947265624" />
<line x1="-525.8647268600818" y1="-33.94785881714019" x2="-525.8625896745777" y2="-33.9344813362048" style="stroke:#F00;stroke-width:0.16204595947265624" />
<line x1="-525.8625896745777" y1="-33.9344813362048" x2="-525.85934247724" y2="-33.91343439416021" style="stroke:#F00;stroke-width:0.16204595947265624" />
<line x1="-525.8796499882855" y1="-34.015882656454785" x2="-525.8741445967986" y2="-33.99099863145715" style="stroke:#F00;stroke-width:0.16204595947265624" />
<line x1="-525.8741445967986" y1="-33.99099863145715" x2="-525.8647268600818" y2="-33.94785881714019" style="stroke:#F00;stroke-width:0.16204595947265624" />
<line x1="-525.85579403125" y1="-33.87876442201118" x2="-525.8551296642561" y2="-33.864233784227515" style="stroke:#F00;stroke-width:0.16204595947265624" />
<line x1="-525.8551296642561" y1="-33.864233784227515" x2="-525.8543784670087" y2="-33.84392227723595" style="stroke:#F00;stroke-width:0.16204595947265624" />
<line x1="-525.85934247724" y1="-33.91343439416021" x2="-525.857852652199" y2="-33.89946600936423" style="stroke:#F00;stroke-width:0.16204595947265624" />
<line x1="-525.857852652199" y1="-33.89946600936423" x2="-525.85579403125" y2="-33.87876442201118" style="stroke:#F00;stroke-width:0.16204595947265624" />
<line x1="-525.8543784670087" y1="-33.84392227723595" x2="-525.8544205596152" y2="-33.83645820792026" style="stroke:#F00;stroke-width:0.16204595947265624" />
<line x1="-525.8544205596152" y1="-33.83645820792026" x2="-525.8546001468625" y2="-33.82647966862946" style="stroke:#F00;stroke-width:0.16204595947265624" />
<line x1="-525.8546001468625" y1="-33.82647966862946" x2="-525.8549374442777" y2="-33.81890182618671" style="stroke:#F00;stroke-width:0.16204595947265624" />
<line x1="-525.8549374442777" y1="-33.81890182618671" x2="-525.8554863963217" y2="-33.809054813940364" style="stroke:#F00;stroke-width:0.16204595947265624" />
<line x1="-525.9755078248801" y1="-33.56587438983824" x2="-525.9881246287922" y2="-33.55500431198036" style="stroke:#F00;stroke-width:0.16204595947265624" />
<line x1="-525.9881246287922" y1="-33.55500431198036" x2="-526.0016705722651" y2="-33.54280771706054" style="stroke:#F00;stroke-width:0.16204595947265624" />
<line x1="-525.8915123980673" y1="-33.67575353193472" x2="-525.8954209099912" y2="-33.66822472750733" style="stroke:#F00;stroke-width:0.16204595947265624" />
<line x1="-525.8954209099912" y1="-33.66822472750733" x2="-525.899681655366" y2="-33.660464881242376" style="stroke:#F00;stroke-width:0.16204595947265624" />
<line x1="-525.8668323323957" y1="-33.74056434231006" x2="-525.8690272898712" y2="-33.73275830443819" style="stroke:#F00;stroke-width:0.16204595947265624" />
<line x1="-525.8690272898712" y1="-33.73275830443819" x2="-525.8717351364883" y2="-33.72389638566918" style="stroke:#F00;stroke-width:0.16204595947265624" />
<line x1="-525.8595580521654" y1="-33.77454299753532" x2="-525.8609436134446" y2="-33.76676574752247" style="stroke:#F00;stroke-width:0.16204595947265624" />
<line x1="-525.8609436134446" y1="-33.76676574752247" x2="-525.8627740305186" y2="-33.75746019043226" style="stroke:#F00;stroke-width:0.16204595947265624" />
<line x1="-525.8571299817972" y1="-33.79175579009157" x2="-525.8581661178004" y2="-33.78403586071796" style="stroke:#F00;stroke-width:0.16204595947265624" />
<line x1="-525.8581661178004" y1="-33.78403586071796" x2="-525.8595580521654" y2="-33.77454299753532" style="stroke:#F00;stroke-width:0.16204595947265624" />
<line x1="-525.8627740305186" y1="-33.75746019043226" x2="-525.8645740921871" y2="-33.74965690076629" style="stroke:#F00;stroke-width:0.16204595947265624" />
<line x1="-525.8645740921871" y1="-33.74965690076629" x2="-525.8668323323957" y2="-33.74056434231006" style="stroke:#F00;stroke-width:0.16204595947265624" />
<line x1="-525.87747771786" y1="-33.707510581145435" x2="-525.8805447636541" y2="-33.699788173969196" style="stroke:#F00;stroke-width:0.16204595947265624" />
<line x1="-525.8805447636541" y1="-33.699788173969196" x2="-525.8840598827296" y2="-33.69144853956251" style="stroke:#F00;stroke-width:0.16204595947265624" />
<line x1="-525.8717351364883" y1="-33.72389638566918" x2="-525.8743620272563" y2="-33.71611892317472" style="stroke:#F00;stroke-width:0.16204595947265624" />
<line x1="-525.8743620272563" y1="-33.71611892317472" x2="-525.87747771786" y2="-33.707510581145435" style="stroke:#F00;stroke-width:0.16204595947265624" />
<line x1="-525.8840598827296" y1="-33.69144853956251" x2="-525.8875746429668" y2="-33.683810054514744" style="stroke:#F00;stroke-width:0.16204595947265624" />
<line x1="-525.8875746429668" y1="-33.683810054514744" x2="-525.8915123980673" y2="-33.67575353193472" style="stroke:#F00;stroke-width:0.16204595947265624" />
<line x1="-525.9286137298002" y1="-33.617211991440755" x2="-525.934079749749" y2="-33.61028635234694" style="stroke:#F00;stroke-width:0.16204595947265624" />
<line x1="-525.934079749749" y1="-33.61028635234694" x2="-525.939532146063" y2="-33.603701080948476" style="stroke:#F00;stroke-width:0.16204595947265624" />
<line x1="-525.9086593854306" y1="-33.64560303727938" x2="-525.9133700627111" y2="-33.63834773418083" style="stroke:#F00;stroke-width:0.16204595947265624" />
<line x1="-525.9133700627111" y1="-33.63834773418083" x2="-525.918293282803" y2="-33.631181921144986" style="stroke:#F00;stroke-width:0.16204595947265624" />
<line x1="-525.899681655366" y1="-33.660464881242376" x2="-525.9040196258193" y2="-33.65306520542611" style="stroke:#F00;stroke-width:0.16204595947265624" />
<line x1="-525.9040196258193" y1="-33.65306520542611" x2="-525.9086593854306" y2="-33.64560303727938" style="stroke:#F00;stroke-width:0.16204595947265624" />
<line x1="-525.918293282803" y1="-33.631181921144986" x2="-525.9233801733009" y2="-33.624086060520774" style="stroke:#F00;stroke-width:0.16204595947265624" />
<line x1="-525.9233801733009" y1="-33.624086060520774" x2="-525.9286137298002" y2="-33.617211991440755" style="stroke:#F00;stroke-width:0.16204595947265624" />
<line x1="-525.9755078248801" y1="-33.56587438983824" x2="-525.9691183744092" y2="-33.57224976019879" style="stroke:#F00;stroke-width:0.16204595947265624" />
<line x1="-525.9691183744092" y1="-33.57224976019879" x2="-525.963025632383" y2="-33.578806519021235" style="stroke:#F00;stroke-width:0.16204595947265624" />
<line x1="-525.9510166035864" y1="-33.59064732821722" x2="-525.963025632383" y2="-33.578806519021235" style="stroke:#F00;stroke-width:0.16204595947265624" />
<line x1="-525.939532146063" y1="-33.603701080948476" x2="-525.9453170685773" y2="-33.596953489395105" style="stroke:#F00;stroke-width:0.16204595947265624" />
<line x1="-525.9453170685773" y1="-33.596953489395105" x2="-525.9510166035864" y2="-33.59064732821722" style="stroke:#F00;stroke-width:0.16204595947265624" />
<line x1="-526.0876870360761" y1="-33.482519195915266" x2="-526.1158884208394" y2="-33.467003177372405" style="stroke:#F00;stroke-width:0.16204595947265624" />
<line x1="-526.1158884208394" y1="-33.467003177372405" x2="-526.1489965502965" y2="-33.44829559888932" style="stroke:#F00;stroke-width:0.16204595947265624" />
<line x1="-526.0292968889647" y1="-33.52132291564656" x2="-526.0428089128685" y2="-33.51207783545061" style="stroke:#F00;stroke-width:0.16204595947265624" />
<line x1="-526.0428089128685" y1="-33.51207783545061" x2="-526.0580266041221" y2="-33.501277435044365" style="stroke:#F00;stroke-width:0.16204595947265624" />
<line x1="-526.0016705722651" y1="-33.54280771706054" x2="-526.0148155438528" y2="-33.532801830826855" style="stroke:#F00;stroke-width:0.16204595947265624" />
<line x1="-526.0148155438528" y1="-33.532801830826855" x2="-526.0292968889647" y2="-33.52132291564656" style="stroke:#F00;stroke-width:0.16204595947265624" />
<line x1="-526.0580266041221" y1="-33.501277435044365" x2="-526.0718046099092" y2="-33.49269832764033" style="stroke:#F00;stroke-width:0.16204595947265624" />
<line x1="-526.0718046099092" y1="-33.49269832764033" x2="-526.0876870360761" y2="-33.482519195915266" style="stroke:#F00;stroke-width:0.16204595947265624" />
<line x1="-526.1489965502965" y1="-33.44829559888932" x2="-526.1776732169192" y2="-33.434544461199884" style="stroke:#F00;stroke-width:0.16204595947265624" />
<line x1="-526.1776732169192" y1="-33.434544461199884" x2="-526.2122179917509" y2="-33.417659024945365" style="stroke:#F00;stroke-width:0.16204595947265624" />
<line x1="-526.4685883285309" y1="-33.319664605485066" x2="-526.5849167634134" y2="-33.28499314210253" style="stroke:#F00;stroke-width:0.16204595947265624" />
<line x1="-526.5849167634134" y1="-33.28499314210253" x2="-526.7312597672015" y2="-33.24104605285816" style="stroke:#F00;stroke-width:0.16204595947265624" />
<line x1="-526.3391131529175" y1="-33.365203902870306" x2="-526.3966334953024" y2="-33.34509377561812" style="stroke:#F00;stroke-width:0.16204595947265624" />
<line x1="-526.3966334953024" y1="-33.34509377561812" x2="-526.4685883285309" y2="-33.319664605485066" style="stroke:#F00;stroke-width:0.16204595947265624" />
<line x1="-532.0991811538416" y1="-31.294288134478325" x2="-532.270541792054" y2="-31.203078203948014" style="stroke:#F00;stroke-width:0.16204595947265624" />
<line x1="-532.270541792054" y1="-31.203078203948014" x2="-532.3390004579051" y2="-31.166553763840792" style="stroke:#F00;stroke-width:0.16204595947265624" />
<line x1="-532.5943498038563" y1="-31.071129320040754" x2="-532.618808124417" y2="-31.066162151194078" style="stroke:#F00;stroke-width:0.16204595947265624" />
<line x1="-532.618808124417" y1="-31.066162151194078" x2="-532.6279632569009" y2="-31.06431374709666" style="stroke:#F00;stroke-width:0.16204595947265624" />
<line x1="-532.4639396952198" y1="-31.112133841247683" x2="-532.5108994650582" y2="-31.095527597942713" style="stroke:#F00;stroke-width:0.16204595947265624" />
<line x1="-532.5108994650582" y1="-31.095527597942713" x2="-532.5283503107337" y2="-31.089355736132774" style="stroke:#F00;stroke-width:0.16204595947265624" />
<line x1="-532.5283503107337" y1="-31.089355736132774" x2="-532.5522598764824" y2="-31.08221518777895" style="stroke:#F00;stroke-width:0.16204595947265624" />
<line x1="-532.5522598764824" y1="-31.08221518777895" x2="-532.5611410028383" y2="-31.079569895591717" style="stroke:#F00;stroke-width:0.16204595947265624" />
<line x1="-532.5611410028383" y1="-31.079569895591717" x2="-532.5853538594689" y2="-31.073412608916968" style="stroke:#F00;stroke-width:0.16204595947265624" />
<line x1="-532.5853538594689" y1="-31.073412608916968" x2="-532.5943498038563" y2="-31.071129320040754" style="stroke:#F00;stroke-width:0.16204595947265624" />
<line x1="-532.7308564986777" y1="-31.057601867165214" x2="-532.74316551419" y2="-31.058712910322235" style="stroke:#F00;stroke-width:0.16204595947265624" />
<line x1="-532.74316551419" y1="-31.058712910322235" x2="-532.7480821579655" y2="-31.059172043374296" style="stroke:#F00;stroke-width:0.16204595947265624" />
<line x1="-532.6619824770028" y1="-31.05948169407959" x2="-532.6744186714607" y2="-31.058360401650262" style="stroke:#F00;stroke-width:0.16204595947265624" />
<line x1="-532.6744186714607" y1="-31.058360401650262" x2="-532.6791585327302" y2="-31.057941715372525" style="stroke:#F00;stroke-width:0.16204595947265624" />
<line x1="-532.6279632569009" y1="-31.06431374709666" x2="-532.6526501436152" y2="-31.060796567306056" style="stroke:#F00;stroke-width:0.16204595947265624" />
<line x1="-532.6526501436152" y1="-31.060796567306056" x2="-532.6619824770028" y2="-31.05948169407959" style="stroke:#F00;stroke-width:0.16204595947265624" />
<line x1="-532.696368053066" y1="-31.0570646418513" x2="-532.7087911661699" y2="-31.056956383256654" style="stroke:#F00;stroke-width:0.16204595947265624" />
<line x1="-532.7087911661699" y1="-31.056956383256654" x2="-532.7136310708927" y2="-31.05692596443846" style="stroke:#F00;stroke-width:0.16204595947265624" />
<line x1="-532.6791585327302" y1="-31.057941715372525" x2="-532.69158968041" y2="-31.0573001069045" style="stroke:#F00;stroke-width:0.16204595947265624" />
<line x1="-532.69158968041" y1="-31.0573001069045" x2="-532.696368053066" y2="-31.0570646418513" style="stroke:#F00;stroke-width:0.16204595947265624" />
<line x1="-532.7136310708927" y1="-31.05692596443846" x2="-532.7259987429366" y2="-31.057400818754648" style="stroke:#F00;stroke-width:0.16204595947265624" />
<line x1="-532.7259987429366" y1="-31.057400818754648" x2="-532.7308564986777" y2="-31.057601867165214" style="stroke:#F00;stroke-width:0.16204595947265624" />
<line x1="-532.7988367183267" y1="-31.069919481547178" x2="-532.8036911755139" y2="-31.071662400908853" style="stroke:#F00;stroke-width:0.16204595947265624" />
<line x1="-532.8036911755139" y1="-31.071662400908853" x2="-532.8151021193939" y2="-31.075708350467636" style="stroke:#F00;stroke-width:0.16204595947265624" />
<line x1="-532.7652153152998" y1="-31.06170404946318" x2="-532.7772184318587" y2="-31.064211810367397" style="stroke:#F00;stroke-width:0.16204595947265624" />
<line x1="-532.7772184318587" y1="-31.064211810367397" x2="-532.7821530698882" y2="-31.065265261323493" style="stroke:#F00;stroke-width:0.16204595947265624" />
<line x1="-532.7480821579655" y1="-31.059172043374296" x2="-532.7602841278746" y2="-31.06096130000909" style="stroke:#F00;stroke-width:0.16204595947265624" />
<line x1="-532.7602841278746" y1="-31.06096130000909" x2="-532.7652153152998" y2="-31.06170404946318" style="stroke:#F00;stroke-width:0.16204595947265624" />
<line x1="-532.7821530698882" y1="-31.065265261323493" x2="-532.7870484994796" y2="-31.066648687540074" style="stroke:#F00;stroke-width:0.16204595947265624" />
<line x1="-532.7870484994796" y1="-31.066648687540074" x2="-532.7988367183267" y2="-31.069919481547178" style="stroke:#F00;stroke-width:0.16204595947265624" />
<line x1="-532.8309126634975" y1="-31.082639870053466" x2="-532.8355841609706" y2="-31.085146475502135" style="stroke:#F00;stroke-width:0.16204595947265624" />
<line x1="-532.8355841609706" y1="-31.085146475502135" x2="-532.8461019054565" y2="-31.090712205600727" style="stroke:#F00;stroke-width:0.16204595947265624" />
<line x1="-532.8151021193939" y1="-31.075708350467636" x2="-532.8198828455018" y2="-31.077826136358617" style="stroke:#F00;stroke-width:0.16204595947265624" />
<line x1="-532.8198828455018" y1="-31.077826136358617" x2="-532.8309126634975" y2="-31.082639870053466" style="stroke:#F00;stroke-width:0.16204595947265624" />
<line x1="-532.8606566625597" y1="-31.099883522818086" x2="-532.8506589485985" y2="-31.093607821071604" style="stroke:#F00;stroke-width:0.16204595947265624" />
<line x1="-532.8506589485985" y1="-31.093607821071604" x2="-532.8461019054565" y2="-31.090712205600727" style="stroke:#F00;stroke-width:0.16204595947265624" />
</svg>
